<svg id="Layer_1" data-name="Layer 1" xmlns="http://www.w3.org/2000/svg" viewBox="0 0 352.38 428.32"><defs><style>.cls-1{fill:#2868b7;}</style></defs><path class="cls-1" d="M93.49,393.21C93.49,417.36,74,431,48.79,431,22.06,431,4.21,417.16,4.21,393c0-22.27,18.09-36.76,44.58-36.76C79.18,356.26,93.49,374.49,93.49,393.21Zm-61.38,0c0,9.07,3.32,20.4,16.68,20.4,12.06,0,16.79-8.67,16.79-20.4,0-9.65-4.73-19.9-17-19.61C35.9,373.6,32.11,384.25,32.11,393.21Z" transform="translate(-1.93 -2.64)"/><path class="cls-1" d="M159.45,385.23c-.83-7.39-6.39-11.63-15.14-11.63-9.81,0-15.73,7-15.73,20.7,0,9.95,2.61,19.31,16.8,19.31,9,0,13.24-5.22,14.31-12h26.84C184.05,419.92,168.32,431,145.85,431c-28.15,0-45.17-14.39-45.17-37.45s18.68-37.25,42.45-37.25c26,0,40.56,10.74,42.81,29Z" transform="translate(-1.93 -2.64)"/><path class="cls-1" d="M191.36,358.13h78.05v18.63H244.34v52.32H216.43V376.76H191.36Z" transform="translate(-1.93 -2.64)"/><path class="cls-1" d="M262.54,429.08l30.51-70.95h28.38l30.51,70.95H324.15l-3.31-9.36H293.05l-3.19,9.36ZM307,379.52l-8.64,25.42H316Z" transform="translate(-1.93 -2.64)"/><path class="cls-1" d="M330.92,332.74h1.18a22.21,22.21,0,0,0,22.22-22.21V24.85A22.21,22.21,0,0,0,332.1,2.64h-308A22.21,22.21,0,0,0,1.93,24.85V310.53a22.21,22.21,0,0,0,22.22,22.21h1l139.89-304h0l-41.3,304H232.54l-41.34-304h0Z" transform="translate(-1.93 -2.64)"/></svg>